<mxfile host="Electron" agent="Mozilla/5.0 (Windows NT 10.0; Win64; x64) AppleWebKit/537.36 (KHTML, like Gecko) draw.io/24.7.8 Chrome/128.0.6613.36 Electron/32.0.1 Safari/537.36" version="24.7.8">
  <diagram name="페이지-1" id="6Y-D9fufT2Aj4vKmrO4j">
    <mxGraphModel dx="1416" dy="1918" grid="1" gridSize="10" guides="1" tooltips="1" connect="1" arrows="1" fold="1" page="1" pageScale="1" pageWidth="850" pageHeight="1100" math="0" shadow="0">
      <root>
        <mxCell id="0" />
        <mxCell id="1" parent="0" />
        <mxCell id="W4ZG8LTANqpaEEe-8gN7-10" style="edgeStyle=orthogonalEdgeStyle;rounded=0;orthogonalLoop=1;jettySize=auto;html=1;exitX=1;exitY=0.5;exitDx=0;exitDy=0;entryX=0;entryY=0.5;entryDx=0;entryDy=0;startArrow=classic;startFill=1;endArrow=none;endFill=0;strokeWidth=2;" parent="1" source="W4ZG8LTANqpaEEe-8gN7-1" target="W4ZG8LTANqpaEEe-8gN7-9" edge="1">
          <mxGeometry relative="1" as="geometry" />
        </mxCell>
        <mxCell id="W4ZG8LTANqpaEEe-8gN7-1" value="professor" style="swimlane;whiteSpace=wrap;html=1;startSize=40;fontFamily=Pretendard Medium;strokeWidth=2;fillColor=none;" parent="1" vertex="1">
          <mxGeometry x="120" y="-40" width="160" height="200" as="geometry" />
        </mxCell>
        <mxCell id="W4ZG8LTANqpaEEe-8gN7-15" value="" style="rounded=0;whiteSpace=wrap;html=1;fillColor=none;" parent="W4ZG8LTANqpaEEe-8gN7-1" vertex="1">
          <mxGeometry y="40" width="160" height="160" as="geometry" />
        </mxCell>
        <mxCell id="W4ZG8LTANqpaEEe-8gN7-2" value="&lt;u&gt;ID&lt;/u&gt;" style="text;html=1;align=left;verticalAlign=middle;whiteSpace=wrap;rounded=0;fontFamily=Pretendard Medium;" parent="W4ZG8LTANqpaEEe-8gN7-1" vertex="1">
          <mxGeometry x="10" y="60" width="140" height="40" as="geometry" />
        </mxCell>
        <mxCell id="W4ZG8LTANqpaEEe-8gN7-3" value="name" style="text;html=1;align=left;verticalAlign=middle;whiteSpace=wrap;rounded=0;fontFamily=Pretendard Medium;" parent="W4ZG8LTANqpaEEe-8gN7-1" vertex="1">
          <mxGeometry x="10" y="100" width="140" height="40" as="geometry" />
        </mxCell>
        <mxCell id="W4ZG8LTANqpaEEe-8gN7-4" value="department" style="text;html=1;align=left;verticalAlign=middle;whiteSpace=wrap;rounded=0;fontFamily=Pretendard Medium;" parent="W4ZG8LTANqpaEEe-8gN7-1" vertex="1">
          <mxGeometry x="10" y="140" width="140" height="40" as="geometry" />
        </mxCell>
        <mxCell id="W4ZG8LTANqpaEEe-8gN7-11" style="rounded=0;orthogonalLoop=1;jettySize=auto;html=1;exitX=0;exitY=0.5;exitDx=0;exitDy=0;entryX=1;entryY=0.5;entryDx=0;entryDy=0;endArrow=none;endFill=0;strokeWidth=2;sourcePerimeterSpacing=0;targetPerimeterSpacing=0;shape=link;" parent="1" source="W4ZG8LTANqpaEEe-8gN7-5" target="W4ZG8LTANqpaEEe-8gN7-9" edge="1">
          <mxGeometry relative="1" as="geometry" />
        </mxCell>
        <mxCell id="W4ZG8LTANqpaEEe-8gN7-5" value="student" style="swimlane;whiteSpace=wrap;html=1;startSize=40;fontFamily=Pretendard Medium;strokeWidth=2;fillColor=none;" parent="1" vertex="1">
          <mxGeometry x="600" y="-40" width="160" height="200" as="geometry" />
        </mxCell>
        <mxCell id="W4ZG8LTANqpaEEe-8gN7-16" value="" style="rounded=0;whiteSpace=wrap;html=1;fillColor=none;" parent="W4ZG8LTANqpaEEe-8gN7-5" vertex="1">
          <mxGeometry y="40" width="160" height="160" as="geometry" />
        </mxCell>
        <mxCell id="W4ZG8LTANqpaEEe-8gN7-6" value="&lt;u&gt;ID&lt;/u&gt;" style="text;html=1;align=left;verticalAlign=middle;whiteSpace=wrap;rounded=0;fontFamily=Pretendard Medium;" parent="W4ZG8LTANqpaEEe-8gN7-5" vertex="1">
          <mxGeometry x="10" y="60" width="140" height="40" as="geometry" />
        </mxCell>
        <mxCell id="W4ZG8LTANqpaEEe-8gN7-7" value="name" style="text;html=1;align=left;verticalAlign=middle;whiteSpace=wrap;rounded=0;fontFamily=Pretendard Medium;" parent="W4ZG8LTANqpaEEe-8gN7-5" vertex="1">
          <mxGeometry x="10" y="100" width="140" height="40" as="geometry" />
        </mxCell>
        <mxCell id="W4ZG8LTANqpaEEe-8gN7-8" value="department" style="text;html=1;align=left;verticalAlign=middle;whiteSpace=wrap;rounded=0;fontFamily=Pretendard Medium;" parent="W4ZG8LTANqpaEEe-8gN7-5" vertex="1">
          <mxGeometry x="10" y="140" width="140" height="40" as="geometry" />
        </mxCell>
        <mxCell id="W4ZG8LTANqpaEEe-8gN7-13" style="edgeStyle=orthogonalEdgeStyle;rounded=0;orthogonalLoop=1;jettySize=auto;html=1;exitX=0.5;exitY=0;exitDx=0;exitDy=0;dashed=1;endArrow=none;endFill=0;strokeWidth=3;" parent="1" source="W4ZG8LTANqpaEEe-8gN7-9" target="W4ZG8LTANqpaEEe-8gN7-14" edge="1">
          <mxGeometry relative="1" as="geometry">
            <mxPoint x="440" y="-40" as="targetPoint" />
          </mxGeometry>
        </mxCell>
        <mxCell id="W4ZG8LTANqpaEEe-8gN7-9" value="&lt;font style=&quot;font-size: 14px;&quot;&gt;advisor&lt;/font&gt;" style="rhombus;whiteSpace=wrap;html=1;fontFamily=Pretendard Medium;fontSize=14;strokeWidth=2;fillColor=none;" parent="1" vertex="1">
          <mxGeometry x="350" y="20" width="180" height="80" as="geometry" />
        </mxCell>
        <mxCell id="W4ZG8LTANqpaEEe-8gN7-14" value="&lt;font style=&quot;font-size: 14px;&quot; face=&quot;Pretendard Medium&quot;&gt;start date&lt;/font&gt;" style="rounded=0;whiteSpace=wrap;html=1;fontSize=14;strokeWidth=2;fillColor=none;" parent="1" vertex="1">
          <mxGeometry x="360" y="-60" width="160" height="40" as="geometry" />
        </mxCell>
      </root>
    </mxGraphModel>
  </diagram>
</mxfile>
